<svg xmlns="http://www.w3.org/2000/svg" width="227" height="34" viewBox="0 0 227 34">
    <g fill="#000" fill-rule="nonzero">
        <path d="M107.662 8.878c0 4.513-.459 18.49-.459 18.49 0 2.706.913 3.911 3.496 3.911v1.205h-10.174v-1.21c2.579 0 3.95-1.2 3.95-3.91l.913-22.851c-.763-1.797-1.521-2.405-3.496-2.553V.91h7.745l8.2 21.35L126.19.908h6.982V1.96c-1.975 0-3.037.904-3.037 3.007l.913 22.1c0 3.303.603 4.207 3.336 4.207v1.205h-11.695v-1.205c2.279 0 3.341-.745 3.192-4.207 0 0-.454-15.484-.609-18.19l-5.62 15.337a57.17 57.17 0 0 0-2.125 6.616l-1.826.148c-.453-1.654-1.67-4.661-1.67-4.661s-4.698-13.08-6.369-17.44zm-9.57 23.754c-.61-.148-1.212-.148-1.826-.148-1.212 0-3.342.597-5.92.597-9.87 0-17.161-5.86-17.161-16.689 0-9.168 6.832-16.239 17.31-16.239 2.43 0 5.162.455 7.442 1.358.453-.454.608-.75 1.062-1.205h.913c-.15 1.654-.758 7.07-.758 7.07h-.913c-.609-3.16-2.274-5.262-7.59-5.262-6.38 0-12.15 4.962-12.15 14.136 0 10.373 5.92 14.88 12.453 14.88 4.255 0 6.833-2.404 8.504-5.41l1.062.449-2.429 6.463zM69.393 6.769h-1.062c-.15-2.858-1.062-3.757-3.341-3.757h-4.404v23.606c0 3.91.758 4.656 3.341 4.656v1.205H52.542v-1.205c2.579 0 3.342-.745 3.342-4.81V3.013h-4.409c-2.888 0-3.342.75-4.1 3.757h-1.067l.758-6.764.758.148c.304.75.913.75 2.733.75h14.728c2.733 0 3.341 0 3.95-.903h.912l-.753 6.77z"/>
        <path d="M37.278 33.995c-2.134 0-3.803-.307-5.022-.76a8.68 8.68 0 0 1-2.584-1.076c-.403.42-.761.882-1.069 1.378l-.915-.301.76-7.203 1.064.15c.61 3.37 2.894 5.82 7.606 5.82 3.653 0 6.086-3.063 6.086-6.428 0-2.756-1.064-4.134-4.717-6.89-1.21-.77-2.273-1.383-3.188-2.143-3.348-2.147-5.482-4.597-5.482-8.58 0-4.597 3.803-7.66 8.825-7.66 2.893 0 4.717.92 5.327 1.222l1.07-1.222.759.15-.76 6.59-1.07-.152c0-3.063-1.823-4.44-4.866-4.44-2.888 0-5.022 1.533-5.022 4.44 0 2.6 1.979 4.286 4.262 5.82 1.214.764 2.129 1.378 3.043 1.991 5.327 3.828 6.542 6.277 6.542 9.954 0 5.356-4.108 9.34-10.65 9.34zM19.928 7.04h-1.214c0-2.756-1.22-3.827-3.653-3.827H8.215V15.31h4.412c2.284 0 2.739-1.222 3.044-3.214h1.064v8.575h-1.064c-.305-2.293-.76-3.213-3.193-3.213H8.215v10.26c0 3.827.915 4.285 3.348 4.285v1.227H0v-1.227c2.888 0 3.343-.76 3.343-4.285V5.206c0-2.143-.915-3.063-3.343-3.063V1.07h15.82c2.739 0 3.343-.15 3.803-1.071h1.065l-.76 7.041zm164.173 1.841V27.26c0 3.984.914 4.743 3.348 4.743v1.227h-17.955v-1.227c1.37 0 2.584-.458 2.584-1.378 0-.614-.15-1.685-.455-2.756l-1.374-4.441h-10.04c-.15.608-1.978 5.663-1.978 7.041 0 1.222 1.37 1.529 2.284 1.529v1.227h-8.37v-1.222c1.519 0 2.738-.15 3.802-3.365l7.76-24.961c-.449-1.077-1.059-1.384-2.123-1.534V1.07h6.846l8.215 26.19c.76 2.75 1.52 4.134 2.738 4.742 1.824-.608 2.279-1.222 2.279-4.743V5.206c-1.37-1.841-1.519-3.063-4.108-3.063V1.07h7.76l12.783 21.899V6.277c0-3.365-.76-4.134-3.348-4.134V1.07h17.04v1.072c-1.064 0-1.979.457-1.979 1.534 0 .759.305 1.529.605 2.449l4.867 10.567 4.717-10.265c.76-1.378.915-2.143.915-2.907 0-.92-.61-1.378-1.98-1.378V1.07H227v1.072c-1.979 0-3.193 1.84-4.108 3.983l-6.236 12.866v8.424c0 3.672.915 4.592 3.343 4.592v1.228h-11.563v-1.233c2.439 0 3.348-.92 3.348-4.592v-7.197l-6.696-14.239c-1.214-2.756-1.674-3.37-2.434-3.827-1.519.613-1.978 1.685-1.978 4.134v23.584s.15 1.84.304 3.983l-1.978.151L184.1 8.882zm-19.019-1.534l-4.257 13.937h8.824l-4.567-13.937z"/>
        <path d="M146.105 20.554h-2.289v6.4c0 3.273.917 4.016 3.505 4.016v1.192H135.58v-1.197c2.444 0 3.355-.894 3.355-4.162V5.829c0-3.268-.911-3.87-3.355-3.87V.92h8.843c8.538 0 13.57 2.53 13.57 9.37.005 7.143-6.094 10.265-11.887 10.265zM144.577 3h-.76v15.321h1.371c5.033 0 7.627-2.228 7.627-7.885 0-5.658-2.294-7.436-8.238-7.436zM92.891 26.206c-5.794 0-9.755-4.015-9.755-9.814 0-5.507 4.116-9.815 9.755-9.815 5.488 0 9.604 4.162 9.604 9.815 0 5.5-4.266 9.814-9.604 9.814zm0-17.846c-3.966 0-5.338 3.718-5.338 8.032 0 4.015 1.222 8.036 5.338 8.036 3.966 0 5.182-4.02 5.182-8.183 0-4.02-1.522-7.885-5.182-7.885zM25.806 24.423v-1.045c1.523 0 1.828-.445 1.828-.89a4.243 4.243 0 0 0-.305-1.49s-.306-1.187-.611-2.08h-5.944l-.606 1.934c-.19.474-.294.976-.305 1.485 0 .596.61 1.04 1.522 1.04v1.046h-5.949v-1.045c1.522 0 2.133-.445 2.744-2.082L22.757 7.91c-.155-.59-.611-1.04-1.522-1.04V5.829h4.877c3.966 11.305 5.032 14.28 5.032 14.28.761 2.531 1.523 3.269 2.744 3.269v1.045h-8.082zM23.668 9.991l-2.283 7.29h4.727l-2.444-7.29z"/>
    </g>
</svg>
