<svg xmlns="http://www.w3.org/2000/svg" width="20" height="20" viewBox="0 0 20 20">
    <path fill="#DFE8EE" fill-rule="nonzero" d="M17.5 0h-15C1.088 0 0 1.088 0 2.5v15C0 18.911 1.088 20 2.5 20h15c1.411 0 2.5-1.089 2.5-2.5v-15C20 1.088 18.911 0 17.5 0zm-7.486 6.071c2.218 0 4.016 1.742 4.016 3.892 0 2.148-1.798 3.89-4.016 3.89C7.798 13.854 6 12.112 6 9.964c0-2.15 1.799-3.892 4.014-3.892zM17.5 16.875c0 .438-.188.625-.625.625H3.125c-.437 0-.625-.187-.625-.625v-8.75l1.558.339a5.834 5.834 0 0 0-.258 1.715c0 3.324 2.784 6.022 6.214 6.022 3.433 0 6.215-2.697 6.215-6.022 0-.597-.09-1.171-.257-1.715l1.528-.339v8.75zm0-11.25c0 .345-.28.625-.625.625h-2.5a.625.625 0 0 1-.625-.625v-2.5c0-.345.28-.625.625-.625h2.5c.345 0 .625.28.625.625v2.5z"/>
</svg>
