<svg width="200" height="50" xmlns="http://www.w3.org/2000/svg" viewBox="0 0 1700.8 1700.8"><path fill="#282C37" d="M353.2 1259.2h-38.7v-19.3h-116V1356h116.1v-19.3h38.7v19.3c0 19-8.8 31.2-26.3 36.5-4.5 1.4-8.6 2.1-12.4 2.1H198.5c-3.8 0-7.9-.7-12.4-2.1-17.6-5.4-26.3-17.6-26.3-36.5v-116.1c0-19 8.8-31.2 26.3-36.5 4.5-1.4 8.6-2.1 12.4-2.1h116.1c3.8 0 7.9.7 12.4 2.1 17.6 5.4 26.3 17.6 26.3 36.5v19.3h-.1zm169.6-58c3.8 0 7.9.7 12.4 2.1 17.6 5.4 26.3 17.6 26.3 36.5v116.1c0 19-8.8 31.2-26.3 36.5-4.5 1.4-8.6 2.1-12.4 2.1H406.7c-3.8 0-7.9-.7-12.4-2.1-17.6-5.4-26.3-17.6-26.3-36.5v-116.1c0-19 8.8-31.2 26.3-36.5 4.5-1.4 8.6-2.1 12.4-2.1h116.1zm0 154.7v-116.1H406.7v116.1h116.1zM731 1201.2c19 0 31.2 8.8 36.5 26.3 1.4 4.5 2.1 8.6 2.1 12.4V1356c0 19-8.8 31.2-26.3 36.5-4.5 1.4-8.6 2.1-12.4 2.1H576.2v-193.4H731zm-116.1 154.7H731v-116.1H614.9v116.1zm363-116H823.1v38.7h154.7v38.7H823.1v38.7h154.7v38.7H823.1c-3.8 0-7.9-.7-12.4-2.1-17.6-5.4-26.3-17.6-26.3-36.5V1240c0-3.8.7-7.9 2.1-12.4 5.4-17.6 17.6-26.3 36.5-26.3h154.7v38.6z"/><path opacity=".85" fill="#282C37" d="M227.6 1477.4c1.4 0 2.9.3 4.5.8 6.4 2 9.6 6.4 9.6 13.4v14.2c0 1.4-.3 2.9-.8 4.5-2 6.4-6.4 9.6-13.4 9.6h-56.7V1449H214c.9 0 2.1.2 3.6.7 6.6 2 9.8 6.5 9.8 13.5v14.2h.2zm-42.5-14.2v14.2h28.4v-14.2h-28.4zm42.5 42.5v-14.2h-42.5v14.2h42.5zm90.5-42.5h-56.7v14.2h56.7v14.2h-56.7v14.2h56.7v14.2h-56.7c-1.4 0-2.9-.3-4.5-.8-6.4-2-9.6-6.4-9.6-13.4v-42.5c0-1.4.3-2.9.8-4.5 2-6.4 6.4-9.6 13.4-9.6h56.7v14h-.1zm76.3 7.1h-14.2v-7.1h-42.5v42.5h42.5v-7.1h14.2v7.1c0 7-3.2 11.4-9.6 13.4-1.6.5-3.1.8-4.5.8h-42.5c-1.4 0-2.9-.3-4.5-.8-6.4-2-9.6-6.4-9.6-13.4v-42.5c0-7 3.2-11.4 9.6-13.4 1.6-.5 3.1-.8 4.5-.8h42.5c1.4 0 2.9.3 4.5.8 6.4 2 9.6 6.4 9.6 13.4v7.1zm62.1-21.3c7 0 11.4 3.2 13.4 9.6.5 1.6.8 3.1.8 4.5v56.7h-14.2v-28.4H414v28.4h-14.2v-56.7c0-7 3.2-11.4 9.6-13.4 1.6-.5 3.2-.8 4.5-.8h42.6v.1zm0 28.4v-14.2H414v14.2h42.5zm76.3-28.4H547v56.7c0 7-3.2 11.4-9.6 13.4-1.6.5-3.1.8-4.5.8h-42.5c-1.4 0-2.9-.3-4.5-.8-6.4-2-9.6-6.4-9.6-13.4V1449h14.2v56.7H533V1449h-.2zm90.6 14.2h-56.7v14.2h56.7v28.4c0 1.4-.3 2.9-.8 4.5-2 6.4-6.4 9.6-13.4 9.6h-42.5c-7 0-11.4-3.2-13.4-9.6-.5-1.6-.8-3.1-.8-4.5h56.7v-14.2h-56.7v-28.4c0-4.4 1.3-7.9 3.8-10.4 2.6-2.5 6-3.8 10.3-3.8h42.5c1.4 0 2.9.3 4.5.8 6.6 2 9.8 6.5 9.8 13.4zm76.4 0h-56.7v14.2h56.7v14.2h-56.7v14.2h56.7v14.2h-56.7c-1.4 0-2.9-.3-4.5-.8-6.4-2-9.6-6.4-9.6-13.4v-42.5c0-1.4.3-2.9.8-4.5 2-6.4 6.4-9.6 13.4-9.6h56.7v14h-.1zm96.5-14.2h14.2v56.7c0 7-3.2 11.4-9.6 13.4-1.6.5-3.1.8-4.5.8h-42.5c-1.4 0-2.9-.3-4.5-.8-6.4-2-9.6-6.4-9.6-13.4V1449H754v56.7h14v-42.5h14.2v42.5h14.2V1449h-.1zm90.5 14.2h-56.7v14.2h56.7v14.2h-56.7v14.2h56.7v14.2h-56.7c-1.4 0-2.9-.3-4.5-.8-6.4-2-9.6-6.4-9.6-13.4v-42.5c0-1.4.3-2.9.8-4.5 2-6.4 6.4-9.6 13.4-9.6h56.7v14h-.1zm110.8-14.2l-45.1 34.1 45 36.8h-22.2l-34.4-28.1v28.1h-14.2V1449h14.2v24.6L974 1449h23.6zm62.1 0h14.2v56.7c0 1.5-.3 3.2-1 5-2.1 6.1-6.5 9.2-13.2 9.2l-42.5-49.6v49.6H1003v-56.7c0-7 3.2-11.4 9.6-13.4 1.6-.5 3.2-.8 4.5-.8l42.5 49.6V1449h.1zm76.3 0c1.4 0 2.9.3 4.5.8 6.4 2 9.6 6.4 9.6 13.4v42.5c0 7-3.2 11.4-9.6 13.4-1.6.5-3.2.8-4.5.8h-42.5c-1.4 0-2.9-.3-4.5-.8-6.4-2-9.6-6.4-9.6-13.4v-42.5c0-7 3.2-11.4 9.6-13.4 1.6-.5 3.2-.8 4.5-.8h42.5zm0 56.7v-42.5h-42.5v42.5h42.5zm76.3-56.7h14.2v56.7c0 7-3.2 11.4-9.6 13.4-1.6.5-3.1.8-4.5.8h-42.5c-1.4 0-2.9-.3-4.5-.8-6.4-2-9.6-6.4-9.6-13.4V1449h14.2v56.7h14.2v-42.5h14.2v42.5h14.2V1449h-.3zm110.7 0h14.2v70.9H1323v-28.4h-42.5v28.4h-14.2V1449h14.2v28.4h42.5V1449zm76.3 0c1.4 0 2.9.3 4.5.8 6.4 2 9.6 6.4 9.6 13.4v42.5c0 7-3.2 11.4-9.6 13.4-1.6.5-3.2.8-4.5.8h-42.5c-1.4 0-2.9-.3-4.5-.8-6.4-2-9.6-6.4-9.6-13.4v-42.5c0-7 3.2-11.4 9.6-13.4 1.6-.5 3.2-.8 4.5-.8h42.5zm0 56.7v-42.5h-42.5v42.5h42.5zm76.3-56.7h14.2v56.7c0 7-3.2 11.4-9.6 13.4-1.6.5-3.2.8-4.5.8h-42.5c-1.4 0-2.9-.3-4.5-.8-6.4-2-9.6-6.4-9.6-13.4V1449h14.2v56.7h14.2v-42.5h14.2v42.5h14.2V1449h-.3zm30.7 53.4l-2.6-37.4v-15.6h10.7v15.6l-2.5 37.4h-5.6zm-2.3 17.5v-9.9h10v9.9h-10z"/><path fill-rule="evenodd" clip-rule="evenodd" fill="#BF2E2E" d="M1075.8 1195.1h404.9c23.4 0 42.5 19.1 42.5 42.5v125.6c0 23.4-19.1 42.5-42.5 42.5h-404.9c-23.4 0-42.5-19.1-42.5-42.5v-125.6c0-23.3 19.1-42.5 42.5-42.5zm210.2 68.3v-26.2h-130.8v26.2h52.3v78.5h-52.3v26.2H1286v-26.2h-52.3v-78.5h52.3zm10-26.1v26.2h52.3v104.6h26.2v-104.6h52.3v-26.2H1296z"/></svg>