<svg xmlns="http://www.w3.org/2000/svg" viewBox="0 0 30 30"><path fill="#434440" d="M28.7 7.5l-5.5-6.3-1.1-1.3H9.3C7.6-.1 6.2 1.3 6.2 3v4h1.9V3.8c0-1 .8-1.8 1.8-1.8h11v5.2c0 1.9 1.6 3.5 3.5 3.5h3.8L28 25.9c0 1-.8 1.8-1.8 1.8H9.6c-.9 0-1.6-.9-1.6-1.9v-1.3H6.1v1.9c0 1.9 1.3 3.5 2.9 3.5h17.8c1.7 0 3.1-1.4 3.1-3.1V9l-1.2-1.5"/><path fill="#08743B" d="M20.2 25.4H0V6.1h20.2v19.3m-18.3-2h16.3V8H1.9"/><path fill="#08743B" d="M15.7 20.8h-3.4L10 17.5l-2.4 3.3H4.1l4.3-5.3L5 10.8h3.4l1.6 2.6 1.7-2.6h3.5l-3.6 4.7 4.1 5.3"/></svg>