<svg xmlns="http://www.w3.org/2000/svg" width="18" height="15"><path fill="#DFE8EE" d="M18 1.776a7.213 7.213 0 0 1-2.12.596A3.779 3.779 0 0 0 17.502.277a7.279 7.279 0 0 1-2.346.918A3.64 3.64 0 0 0 12.462 0C10.424 0 8.77 1.695 8.77 3.787c0 .296.032.585.095.862-3.069-.158-5.79-1.664-7.612-3.958a3.855 3.855 0 0 0-.5 1.906c0 1.313.652 2.472 1.643 3.152a3.626 3.626 0 0 1-1.673-.473v.047c0 1.835 1.273 3.366 2.963 3.713a3.616 3.616 0 0 1-1.668.066c.47 1.503 1.833 2.6 3.45 2.628A7.292 7.292 0 0 1 0 13.3 10.283 10.283 0 0 0 5.661 15c6.793 0 10.507-5.77 10.507-10.774 0-.164-.003-.329-.01-.49A7.58 7.58 0 0 0 18 1.776"/></svg>